ffmpeg started on 2016-12-06 at 17:20:14
Report written to "Output/x264/results/ffmpeg/crowd_run_2160p50medium3000k.log"
Command line:
Tools/ffmpeg/ffmpeg -benchmark -y -i Input/y4m/crowd_run_2160p50.y4m -c:v libx264 -preset medium -b:v 3000k -an Output/x264/encoded/crowd_run_2160p50medium3000k.mkv
ffmpeg version N-82227-gdb23fde Copyright (c) 2000-2016 the FFmpeg developers
  built with gcc 5.4.0 (Ubuntu 5.4.0-6ubuntu1~16.04.2) 20160609
  configuration: --prefix=/home/jaroslav/ffmpeg_build --pkg-config-flags=--static --extra-cflags=-I/home/jaroslav/ffmpeg_build/include --extra-ldflags=-L/home/jaroslav/ffmpeg_build/lib --bindir=/home/jaroslav/bin --enable-gpl --enable-libass --enable-libfdk-aac --enable-libfreetype --enable-libmp3lame --enable-libopus --enable-libtheora --enable-libvorbis --enable-libvpx --enable-libx264 --enable-libx265 --enable-nvenc --enable-libmfx --enable-libxvid --enable-libgsm --enable-libopencore-amrnb --enable-version3 --enable-nonfree
  libavutil      55. 35.100 / 55. 35.100
  libavcodec     57. 66.101 / 57. 66.101
  libavformat    57. 57.100 / 57. 57.100
  libavdevice    57.  2.100 / 57.  2.100
  libavfilter     6. 66.100 /  6. 66.100
  libswscale      4.  3.100 /  4.  3.100
  libswresample   2.  4.100 /  2.  4.100
  libpostproc    54.  2.100 / 54.  2.100
Input #0, yuv4mpegpipe, from 'Input/y4m/crowd_run_2160p50.y4m':
  Duration: 00:00:10.00, start: 0.000000, bitrate: 4976642 kb/s
    Stream #0:0: Video: rawvideo (I420 / 0x30323449), yuv420p(progressive), 3840x2160, SAR 1:1 DAR 16:9, 50 fps, 50 tbr, 50 tbn, 50 tbc
[libx264 @ 0x2d2e1c0] using SAR=1/1
[libx264 @ 0x2d2e1c0] using cpu capabilities: MMX2 SSE2Fast SSSE3 SSE4.2 AVX FMA3 AVX2 LZCNT BMI2
[libx264 @ 0x2d2e1c0] profile High, level 5.2
[libx264 @ 0x2d2e1c0] 264 - core 148 - H.264/MPEG-4 AVC codec - Copyleft 2003-2016 - http://www.videolan.org/x264.html - options: cabac=1 ref=3 deblock=1:0:0 analyse=0x3:0x113 me=hex subme=7 psy=1 psy_rd=1.00:0.00 mixed_ref=1 me_range=16 chroma_me=1 trellis=1 8x8dct=1 cqm=0 deadzone=21,11 fast_pskip=1 chroma_qp_offset=-2 threads=6 lookahead_threads=1 sliced_threads=0 nr=0 decimate=1 interlaced=0 bluray_compat=0 constrained_intra=0 bframes=3 b_pyramid=2 b_adapt=1 b_bias=0 direct=1 weightb=1 open_gop=0 weightp=2 keyint=250 keyint_min=25 scenecut=40 intra_refresh=0 rc_lookahead=40 rc=abr mbtree=1 bitrate=3000 ratetol=1.0 qcomp=0.60 qpmin=0 qpmax=69 qpstep=4 ip_ratio=1.40 aq=1:1.00
Output #0, matroska, to 'Output/x264/encoded/crowd_run_2160p50medium3000k.mkv':
  Metadata:
    encoder         : Lavf57.57.100
    Stream #0:0: Video: h264 (libx264) (H264 / 0x34363248), yuv420p, 3840x2160 [SAR 1:1 DAR 16:9], q=-1--1, 3000 kb/s, 50 fps, 1k tbn, 50 tbc
    Metadata:
      encoder         : Lavc57.66.101 libx264
    Side data:
      cpb: bitrate max/min/avg: 0/0/3000000 buffer size: 0 vbv_delay: -1
Stream mapping:
  Stream #0:0 -> #0:0 (rawvideo (native) -> h264 (libx264))
Press [q] to stop, [?] for help
frame=   13 fps=0.0 q=0.0 size=       0kB time=00:00:00.00 bitrate=N/A speed=   0x    frame=   28 fps= 23 q=0.0 size=       0kB time=00:00:00.00 bitrate=N/A speed=   0x    frame=   32 fps= 18 q=0.0 size=       0kB time=00:00:00.00 bitrate=N/A speed=   0x    frame=   42 fps= 19 q=0.0 size=       0kB time=00:00:00.00 bitrate=N/A speed=   0x    frame=   47 fps= 10 q=0.0 size=       0kB time=00:00:00.00 bitrate=N/A speed=   0x    frame=   54 fps= 11 q=45.0 size=       1kB time=00:00:00.02 bitrate= 279.6kbits/s speed=0.00413x    frame=   57 fps= 10 q=48.0 size=       1kB time=00:00:00.08 bitrate=  72.5kbits/s speed=0.0145x    frame=   65 fps= 10 q=61.0 size=       1kB time=00:00:00.24 bitrate=  24.4kbits/s speed=0.0388x    frame=   73 fps= 11 q=60.0 size=       1kB time=00:00:00.40 bitrate=  14.6kbits/s speed=0.0585x    frame=   82 fps= 11 q=60.0 size=       1kB time=00:00:00.58 bitrate=  10.1kbits/s speed=0.0784x    frame=   89 fps= 11 q=60.0 size=       1kB time=00:00:00.72 bitrate=   8.1kbits/s speed=0.091x    frame=   97 fps= 11 q=60.0 size=       1kB time=00:00:00.88 bitrate=   6.7kbits/s speed=0.104x    frame=  105 fps= 12 q=59.0 size=       1kB time=00:00:01.04 bitrate=   5.6kbits/s speed=0.115x    frame=  114 fps= 12 q=59.0 size=       1kB time=00:00:01.22 bitrate=   4.8kbits/s speed=0.127x    frame=  122 fps= 12 q=59.0 size=       1kB time=00:00:01.38 bitrate=   4.3kbits/s speed=0.136x    frame=  129 fps= 12 q=59.0 size=       1kB time=00:00:01.52 bitrate=   3.9kbits/s speed=0.141x    frame=  138 fps= 12 q=58.0 size=       1kB time=00:00:01.70 bitrate=   3.5kbits/s speed=0.149x    frame=  146 fps= 12 q=58.0 size=       1kB time=00:00:01.86 bitrate=   3.2kbits/s speed=0.156x    frame=  154 fps= 12 q=58.0 size=       1kB time=00:00:02.02 bitrate=   2.9kbits/s speed=0.162x    frame=  162 fps= 12 q=58.0 size=       1kB time=00:00:02.18 bitrate=   2.7kbits/s speed=0.168x    frame=  170 fps= 13 q=58.0 size=       1kB time=00:00:02.34 bitrate=   2.5kbits/s speed=0.172x    frame=  177 fps= 12 q=57.0 size=       1kB time=00:00:02.48 bitrate=   2.4kbits/s speed=0.173x    frame=  185 fps= 12 q=57.0 size=       1kB time=00:00:02.64 bitrate=   2.2kbits/s speed=0.178x    frame=  194 fps= 13 q=57.0 size=       1kB time=00:00:02.82 bitrate=   2.1kbits/s speed=0.182x    frame=  200 fps= 12 q=57.0 size=       1kB time=00:00:02.94 bitrate=   2.0kbits/s speed=0.181x    frame=  208 fps= 12 q=57.0 size=       1kB time=00:00:03.10 bitrate=   1.9kbits/s speed=0.185x    frame=  214 fps= 12 q=57.0 size=       1kB time=00:00:03.22 bitrate=   1.8kbits/s speed=0.186x    frame=  222 fps= 12 q=57.0 size=       1kB time=00:00:03.38 bitrate=   1.7kbits/s speed=0.19x    frame=  230 fps= 12 q=57.0 size=       1kB time=00:00:03.54 bitrate=   1.7kbits/s speed=0.192x    frame=  238 fps= 13 q=57.0 size=       1kB time=00:00:03.70 bitrate=   1.6kbits/s speed=0.195x    frame=  247 fps= 13 q=57.0 size=       1kB time=00:00:03.88 bitrate=   1.5kbits/s speed=0.199x    frame=  254 fps= 13 q=57.0 size=       1kB time=00:00:04.02 bitrate=   1.5kbits/s speed=0.199x    frame=  262 fps= 13 q=57.0 size=       1kB time=00:00:04.18 bitrate=   1.4kbits/s speed=0.202x    frame=  270 fps= 13 q=57.0 size=       1kB time=00:00:04.34 bitrate=   1.4kbits/s speed=0.204x    frame=  276 fps= 13 q=57.0 size=       1kB time=00:00:04.46 bitrate=   1.3kbits/s speed=0.204x    frame=  284 fps= 13 q=57.0 size=       1kB time=00:00:04.62 bitrate=   1.3kbits/s speed=0.206x    frame=  290 fps= 12 q=57.0 size=       1kB time=00:00:04.74 bitrate=   1.2kbits/s speed=0.204x    frame=  297 fps= 12 q=57.0 size=       1kB time=00:00:04.88 bitrate=   1.2kbits/s speed=0.198x    frame=  306 fps= 12 q=57.0 size=    1876kB time=00:00:05.06 bitrate=3036.3kbits/s speed=0.201x    frame=  312 fps= 12 q=57.0 size=    1876kB time=00:00:05.18 bitrate=2965.9kbits/s speed=0.201x    frame=  320 fps= 12 q=57.0 size=    1876kB time=00:00:05.34 bitrate=2877.1kbits/s speed=0.203x    frame=  328 fps= 12 q=57.0 size=    1876kB time=00:00:05.50 bitrate=2793.4kbits/s speed=0.204x    frame=  333 fps= 12 q=57.0 size=    1876kB time=00:00:05.60 bitrate=2743.5kbits/s speed=0.201x    frame=  341 fps= 12 q=57.0 size=    1876kB time=00:00:05.76 bitrate=2667.3kbits/s speed=0.203x    frame=  349 fps= 12 q=57.0 size=    1876kB time=00:00:05.92 bitrate=2595.3kbits/s speed=0.205x    frame=  355 fps= 12 q=57.0 size=    1876kB time=00:00:06.04 bitrate=2543.7kbits/s speed=0.206x    frame=  359 fps= 12 q=57.0 size=    1876kB time=00:00:06.12 bitrate=2510.5kbits/s speed=0.205x    frame=  364 fps= 12 q=57.0 size=    1876kB time=00:00:06.22 bitrate=2470.1kbits/s speed=0.204x    frame=  370 fps= 12 q=57.0 size=    1876kB time=00:00:06.34 bitrate=2423.4kbits/s speed=0.203x    frame=  375 fps= 12 q=57.0 size=    1876kB time=00:00:06.44 bitrate=2385.7kbits/s speed=0.201x    frame=  384 fps= 12 q=57.0 size=    1876kB time=00:00:06.62 bitrate=2320.9kbits/s speed=0.203x    frame=  389 fps= 12 q=57.0 size=    1876kB time=00:00:06.72 bitrate=2286.3kbits/s speed=0.203x    frame=  396 fps= 12 q=57.0 size=    1876kB time=00:00:06.86 bitrate=2239.7kbits/s speed=0.204x    frame=  404 fps= 12 q=57.0 size=    1876kB time=00:00:07.02 bitrate=2188.6kbits/s speed=0.205x    frame=  411 fps= 12 q=57.0 size=    1876kB time=00:00:07.16 bitrate=2145.9kbits/s speed=0.206x    frame=  414 fps= 12 q=57.0 size=    1876kB time=00:00:07.22 bitrate=2128.0kbits/s speed=0.204x    frame=  422 fps= 12 q=57.0 size=    1876kB time=00:00:07.38 bitrate=2081.9kbits/s speed=0.204x    frame=  428 fps= 12 q=57.0 size=    1876kB time=00:00:07.50 bitrate=2048.6kbits/s speed=0.204x    frame=  432 fps= 12 q=57.0 size=    1876kB time=00:00:07.58 bitrate=2027.0kbits/s speed=0.202x    frame=  438 fps= 11 q=57.0 size=    1876kB time=00:00:07.70 bitrate=1995.4kbits/s speed=0.202x    frame=  445 fps= 12 q=57.0 size=    1876kB time=00:00:07.84 bitrate=1959.8kbits/s speed=0.203x    frame=  448 fps= 11 q=57.0 size=    1876kB time=00:00:07.90 bitrate=1944.9kbits/s speed=0.202x    frame=  454 fps= 11 q=57.0 size=    1876kB time=00:00:08.02 bitrate=1915.8kbits/s speed=0.202x    frame=  461 fps= 11 q=57.0 size=    1876kB time=00:00:08.16 bitrate=1882.9kbits/s speed=0.203x    frame=  466 fps= 11 q=57.0 size=    1876kB time=00:00:08.26 bitrate=1860.1kbits/s speed=0.202x    frame=  471 fps= 11 q=57.0 size=    1876kB time=00:00:08.36 bitrate=1837.9kbits/s speed=0.201x    frame=  473 fps= 11 q=57.0 size=    1876kB time=00:00:08.40 bitrate=1829.1kbits/s speed=0.198x    frame=  481 fps= 11 q=57.0 size=    1876kB time=00:00:08.56 bitrate=1794.9kbits/s speed= 0.2x    frame=  488 fps= 11 q=57.0 size=    1876kB time=00:00:08.70 bitrate=1766.1kbits/s speed= 0.2x    frame=  493 fps= 11 q=57.0 size=    1876kB time=00:00:08.80 bitrate=1746.0kbits/s speed= 0.2x    frame=  499 fps= 11 q=57.0 size=    1876kB time=00:00:08.92 bitrate=1722.5kbits/s speed=0.201x    frame=  500 fps= 11 q=-1.0 Lsize=    3805kB time=00:00:09.94 bitrate=3135.2kbits/s speed=0.209x    
video:3800kB audio:0kB subtitle:0kB other streams:0kB global headers:0kB muxing overhead: 0.114175%
bench: utime=142.148s
bench: maxrss=1827092kB
[libx264 @ 0x2d2e1c0] frame I:2     Avg QP:45.52  size:101678
[libx264 @ 0x2d2e1c0] frame P:126   Avg QP:50.89  size: 18402
[libx264 @ 0x2d2e1c0] frame B:372   Avg QP:50.92  size:  3679
[libx264 @ 0x2d2e1c0] consecutive B-frames:  0.8%  0.0%  0.0% 99.2%
[libx264 @ 0x2d2e1c0] mb I  I16..4: 34.1% 62.5%  3.4%
[libx264 @ 0x2d2e1c0] mb P  I16..4:  6.7%  2.1%  0.0%  P16..4: 16.8%  1.3%  3.2%  0.0%  0.0%    skip:69.9%
[libx264 @ 0x2d2e1c0] mb B  I16..4:  0.0%  0.0%  0.0%  B16..8: 11.1%  0.1%  0.0%  direct: 0.1%  skip:88.7%  L0:37.4% L1:62.6% BI: 0.0%
[libx264 @ 0x2d2e1c0] final ratefactor: 49.28
[libx264 @ 0x2d2e1c0] 8x8 transform intra:30.0% inter:98.9%
[libx264 @ 0x2d2e1c0] coded y,uvDC,uvAC intra: 6.2% 39.7% 2.0% inter: 0.5% 1.7% 0.0%
[libx264 @ 0x2d2e1c0] i16 v,h,dc,p: 59% 24% 10%  7%
[libx264 @ 0x2d2e1c0] i8 v,h,dc,ddl,ddr,vr,hd,vl,hu: 15%  8% 54%  4%  4%  4%  4%  4%  3%
[libx264 @ 0x2d2e1c0] i4 v,h,dc,ddl,ddr,vr,hd,vl,hu: 26% 19% 13%  9%  8%  7%  7%  6%  5%
[libx264 @ 0x2d2e1c0] i8c dc,h,v,p: 96%  2%  2%  0%
[libx264 @ 0x2d2e1c0] Weighted P-Frames: Y:1.6% UV:0.8%
[libx264 @ 0x2d2e1c0] ref P L0: 70.0%  0.9% 19.9%  9.1%  0.1%
[libx264 @ 0x2d2e1c0] ref B L0: 94.4%  3.3%  2.3%
[libx264 @ 0x2d2e1c0] ref B L1: 98.2%  1.8%
[libx264 @ 0x2d2e1c0] kb/s:3112.55
